<svg width="138" height="103" viewBox="0 0 138 103" fill="none" xmlns="http://www.w3.org/2000/svg">
<g clip-path="url(#clip0_568_9413)">
<path d="M47.2428 93.0732H24.583V93.3406H47.2428V93.0732Z" fill="#3F3D56"/>
<path d="M35.9041 93.4048C23.8364 93.4048 14.0186 83.6154 14.0186 71.5826C14.0186 59.5499 23.8364 49.7605 35.9041 49.7605C47.9718 49.7605 57.7897 59.5499 57.7897 71.5826C57.7897 83.6154 47.9718 93.4048 35.9041 93.4048ZM35.9041 50.0458C23.9941 50.0458 14.3046 59.7072 14.3046 71.5826C14.3046 83.4581 23.9941 93.1195 35.9041 93.1195C47.8141 93.1195 57.5036 83.4581 57.5036 71.5826C57.5036 59.7072 47.8141 50.0458 35.9041 50.0458Z" fill="#3F3D56"/>
<path d="M98.3995 24.1361H97.8398V8.84821C97.8398 7.68625 97.6103 6.53566 97.1643 5.46214C96.7184 4.38863 96.0647 3.4132 95.2407 2.59157C94.4167 1.76994 93.4384 1.11818 92.3618 0.673522C91.2852 0.228859 90.1312 -4.1206e-06 88.9659 0H56.4823C55.317 -4.3079e-06 54.1631 0.228858 53.0864 0.673521C52.0098 1.11818 51.0315 1.76994 50.2075 2.59157C49.3835 3.4132 48.7298 4.38862 48.2839 5.46214C47.8379 6.53566 47.6084 7.68625 47.6084 8.84821V92.7186C47.6084 93.8806 47.8379 95.0312 48.2839 96.1047C48.7298 97.1782 49.3835 98.1536 50.2075 98.9753C51.0315 99.7969 52.0098 100.449 53.0864 100.893C54.1631 101.338 55.317 101.567 56.4823 101.567H88.9659C90.1312 101.567 91.2852 101.338 92.3618 100.893C93.4384 100.449 94.4167 99.7969 95.2407 98.9753C96.0647 98.1536 96.7184 97.1782 97.1643 96.1047C97.6103 95.0312 97.8398 93.8806 97.8398 92.7186V35.0182H98.3995L98.3995 24.1361Z" fill="#3F3D56"/>
<path d="M138 101.293H41.8066V101.635H138V101.293Z" fill="#3F3D56"/>
<path d="M89.1146 2.51123H84.8744C85.0694 2.98791 85.1439 3.50509 85.0912 4.01721C85.0385 4.52933 84.8603 5.02067 84.5723 5.44795C84.2843 5.87523 83.8954 6.22534 83.4397 6.46742C82.9841 6.70951 82.4757 6.83615 81.9594 6.83619H63.35C62.8337 6.83615 62.3253 6.70951 61.8697 6.46742C61.414 6.22534 61.025 5.87523 60.7371 5.44795C60.4491 5.02067 60.2709 4.52933 60.2182 4.01721C60.1655 3.50509 60.24 2.98791 60.4349 2.51123H56.4746C55.6043 2.51123 54.7426 2.68214 53.9386 3.01421C53.1346 3.34628 52.404 3.833 51.7886 4.44659C51.1733 5.06017 50.6851 5.7886 50.3521 6.59029C50.0191 7.39198 49.8477 8.25122 49.8477 9.11896V92.8663C49.8477 93.7341 50.0191 94.5933 50.3521 95.395C50.6851 96.1967 51.1733 96.9251 51.7886 97.5387C52.404 98.1523 53.1346 98.639 53.9386 98.9711C54.7426 99.3032 55.6043 99.4741 56.4746 99.4741H89.1146C89.9849 99.4741 90.8466 99.3032 91.6506 98.9711C92.4547 98.639 93.1852 98.1523 93.8006 97.5387C94.4159 96.9251 94.9041 96.1967 95.2371 95.395C95.5702 94.5933 95.7416 93.7341 95.7416 92.8663V9.11897C95.7416 8.25123 95.5702 7.39198 95.2371 6.59029C94.9041 5.7886 94.4159 5.06017 93.8006 4.44659C93.1852 3.833 92.4547 3.34628 91.6506 3.01421C90.8466 2.68214 89.9849 2.51123 89.1146 2.51123ZM88.4022 41.3622C88.4009 41.8157 88.2196 42.2503 87.898 42.571C87.5764 42.8916 87.1406 43.0724 86.6857 43.0737H78.3892C77.9344 43.0724 77.4986 42.8916 77.1769 42.571C76.8553 42.2503 76.674 41.8157 76.6727 41.3622V40.9343C76.6741 40.4808 76.8553 40.0462 77.177 39.7255C77.4986 39.4048 77.9344 39.2241 78.3892 39.2228H86.6857C87.1406 39.2241 87.5764 39.4048 87.898 39.7255C88.2196 40.0462 88.4009 40.4808 88.4022 40.9343V41.3622ZM89.332 33.8029C89.3307 34.2564 89.1494 34.691 88.8278 35.0117C88.5062 35.3323 88.0703 35.5131 87.6155 35.5144H57.8626C57.4077 35.5131 56.9719 35.3323 56.6503 35.0117C56.3287 34.691 56.1474 34.2564 56.1461 33.8029V33.375C56.1474 32.9215 56.3287 32.4869 56.6503 32.1662C56.9719 31.8455 57.4077 31.6648 57.8626 31.6634H87.6155C88.0703 31.6648 88.5062 31.8455 88.8278 32.1662C89.1494 32.4869 89.3307 32.9215 89.332 33.375V33.8029ZM89.332 26.2436C89.3307 26.6971 89.1494 27.1317 88.8278 27.4523C88.5062 27.773 88.0703 27.9538 87.6155 27.9551H57.8626C57.4077 27.9538 56.9719 27.773 56.6503 27.4523C56.3287 27.1317 56.1474 26.6971 56.1461 26.2436V25.8157C56.1474 25.3622 56.3287 24.9276 56.6503 24.6069C56.9719 24.2862 57.4077 24.1055 57.8626 24.1041H87.6155C88.0703 24.1055 88.5062 24.2862 88.8278 24.6069C89.1494 24.9276 89.3307 25.3622 89.332 25.8157V26.2436ZM89.332 18.6843C89.3307 19.1378 89.1494 19.5724 88.8278 19.893C88.5062 20.2137 88.0703 20.3945 87.6155 20.3958H57.8626C57.4077 20.3945 56.9719 20.2137 56.6503 19.893C56.3287 19.5724 56.1474 19.1378 56.1461 18.6843V18.2564C56.1474 17.8029 56.3287 17.3683 56.6503 17.0476C56.9719 16.7269 57.4077 16.5462 57.8626 16.5448H87.6155C88.0703 16.5462 88.5062 16.7269 88.8278 17.0476C89.1494 17.3683 89.3307 17.8029 89.332 18.2564V18.6843Z" fill="#DA924E"/>
<path d="M58.6488 34.6587C59.2018 34.6587 59.6501 34.2117 59.6501 33.6603C59.6501 33.1089 59.2018 32.6619 58.6488 32.6619C58.0958 32.6619 57.6475 33.1089 57.6475 33.6603C57.6475 34.2117 58.0958 34.6587 58.6488 34.6587Z" fill="#D0CDE1"/>
<path d="M61.9388 34.6587C62.4918 34.6587 62.9401 34.2117 62.9401 33.6603C62.9401 33.1089 62.4918 32.6619 61.9388 32.6619C61.3858 32.6619 60.9375 33.1089 60.9375 33.6603C60.9375 34.2117 61.3858 34.6587 61.9388 34.6587Z" fill="#D0CDE1"/>
<path d="M65.2288 34.6587C65.7818 34.6587 66.2301 34.2117 66.2301 33.6603C66.2301 33.1089 65.7818 32.6619 65.2288 32.6619C64.6758 32.6619 64.2275 33.1089 64.2275 33.6603C64.2275 34.2117 64.6758 34.6587 65.2288 34.6587Z" fill="#D0CDE1"/>
<path d="M68.5189 34.6587C69.0719 34.6587 69.5202 34.2117 69.5202 33.6603C69.5202 33.1089 69.0719 32.6619 68.5189 32.6619C67.9659 32.6619 67.5176 33.1089 67.5176 33.6603C67.5176 34.2117 67.9659 34.6587 68.5189 34.6587Z" fill="#D0CDE1"/>
<path d="M79.2474 42.218C79.8004 42.218 80.2487 41.771 80.2487 41.2196C80.2487 40.6682 79.8004 40.2212 79.2474 40.2212C78.6944 40.2212 78.2461 40.6682 78.2461 41.2196C78.2461 41.771 78.6944 42.218 79.2474 42.218Z" fill="#D0CDE1"/>
<path d="M82.5374 42.218C83.0904 42.218 83.5387 41.771 83.5387 41.2196C83.5387 40.6682 83.0904 40.2212 82.5374 40.2212C81.9844 40.2212 81.5361 40.6682 81.5361 41.2196C81.5361 41.771 81.9844 42.218 82.5374 42.218Z" fill="#D0CDE1"/>
<path d="M85.8275 42.218C86.3805 42.218 86.8288 41.771 86.8288 41.2196C86.8288 40.6682 86.3805 40.2212 85.8275 40.2212C85.2745 40.2212 84.8262 40.6682 84.8262 41.2196C84.8262 41.771 85.2745 42.218 85.8275 42.218Z" fill="#D0CDE1"/>
<path d="M115.723 8.55762H119.729V4.56402H115.723V8.55762Z" fill="#F2F2F2"/>
<path d="M114.865 9.55615H118.87V5.56256H114.865V9.55615Z" fill="#006747"/>
<path d="M111.003 6.98877H117.583V13.5497H111.003V6.98877ZM117.297 7.27403H111.289V13.2644H117.297V7.27403Z" fill="#3F3D56"/>
<path d="M41.4837 37.5112H37.4785V41.5048H41.4837V37.5112Z" fill="#F2F2F2"/>
<path d="M42.3421 36.5129H38.3369V40.5065H42.3421V36.5129Z" fill="#006747"/>
<path d="M46.204 39.0802H39.624V32.5193H46.204V39.0802ZM39.9101 38.7949H45.9179V32.8045H39.9101V38.7949Z" fill="#3F3D56"/>
<path d="M105.57 60.1675C105.57 60.1675 103.074 65.3515 104.738 65.5588C106.402 65.7662 106.818 60.8932 106.818 60.8932L105.57 60.1675Z" fill="#FFB9B9"/>
<path d="M115.032 93.3452L113.368 96.2849L116.384 98.1663L117.104 94.695L115.032 93.3452Z" fill="#FFB9B9"/>
<path d="M114.321 96.6932C114.321 96.6932 113.408 95.2102 113.078 95.4584C112.747 95.7067 111.384 96.7823 111.384 96.7823L109.609 98.4775C109.609 98.4775 103.612 99.1098 107.423 101.205C111.234 103.3 113.34 101.563 113.34 101.563C113.34 101.563 118.677 101.84 118.591 100.355C118.505 98.8701 116.783 96.521 116.783 96.521C116.783 96.521 114.614 97.9713 114.321 96.6932Z" fill="#2F2E41"/>
<path opacity="0.1" d="M114.321 96.6932C114.321 96.6932 113.408 95.2102 113.078 95.4584C112.747 95.7067 111.384 96.7823 111.384 96.7823L109.609 98.4775C109.609 98.4775 103.612 99.1098 107.423 101.205C111.234 103.3 113.34 101.563 113.34 101.563C113.34 101.563 118.677 101.84 118.591 100.355C118.505 98.8701 116.783 96.521 116.783 96.521C116.783 96.521 114.614 97.9713 114.321 96.6932Z" fill="black"/>
<path d="M122.415 60.1157L120.855 78.9336C120.855 78.9336 120.803 90.1829 119.139 92.3601C117.476 94.5374 117.424 95.6261 117.424 95.6261L113.992 93.8635C113.992 93.8635 115.136 93.7598 114.616 93.0341C114.096 92.3083 112.537 93.0341 113.992 91.9973C115.448 90.9605 115.76 90.9265 115.396 90.4769C115.172 90.1918 115.012 89.8616 114.928 89.5089L115.864 77.8968L114.096 57.6792L122.415 60.1157Z" fill="#2F2E41"/>
<path opacity="0.1" d="M122.415 60.1157L120.855 78.9336C120.855 78.9336 120.803 90.1829 119.139 92.3601C117.476 94.5374 117.424 95.6261 117.424 95.6261L113.992 93.8635C113.992 93.8635 115.136 93.7598 114.616 93.0341C114.096 92.3083 112.537 93.0341 113.992 91.9973C115.448 90.9605 115.76 90.9265 115.396 90.4769C115.172 90.1918 115.012 89.8616 114.928 89.5089L115.864 77.8968L114.096 57.6792L122.415 60.1157Z" fill="black"/>
<path d="M118.151 93.3452L119.607 97.1813L123.766 95.6261L121.167 92.9304L118.151 93.3452Z" fill="#FFB9B9"/>
<path d="M120.217 95.5321C120.217 95.5321 118.662 94.5636 118.468 94.951C118.274 95.3384 117.497 96.9849 117.497 96.9849L116.623 99.4062C116.623 99.4062 111.28 102.796 115.845 102.99C120.411 103.183 121.576 100.568 121.576 100.568C121.576 100.568 126.725 98.3408 125.947 96.9849C125.17 95.629 122.451 94.2227 122.451 94.2227C122.451 94.2227 121.091 96.5975 120.217 95.5321Z" fill="#2F2E41"/>
<path d="M109.209 60.1676L108.377 77.4821C108.377 77.4821 112.432 88.9906 115.968 90.8568C115.968 90.8568 115.968 93.1378 116.799 93.5525C117.047 93.6801 117.267 93.856 117.446 94.0697C117.624 94.2834 117.758 94.5306 117.839 94.7967L122.414 93.6562C122.414 93.6562 121.271 92.5157 121.687 91.9973C122.102 91.4789 120.335 90.3384 120.335 90.3384L115.76 79.2447C115.76 79.2447 115.032 78.9336 114.824 77.8968C114.616 76.86 114.2 76.86 115.24 76.6527C116.28 76.4453 116.28 75.4085 116.28 75.4085L119.711 59.6492L109.209 60.1676Z" fill="#2F2E41"/>
<path d="M112.953 33.0034C115.25 33.0034 117.112 31.1466 117.112 28.8562C117.112 26.5657 115.25 24.709 112.953 24.709C110.656 24.709 108.794 26.5657 108.794 28.8562C108.794 31.1466 110.656 33.0034 112.953 33.0034Z" fill="#FFB9B9"/>
<path d="M116.644 29.1152C116.644 29.1152 116.956 34.4029 117.372 34.9213C117.788 35.4397 113.005 35.336 113.005 35.336C113.005 35.336 113.317 30.8778 113.005 30.4631C112.693 30.0483 116.644 29.1152 116.644 29.1152Z" fill="#FFB9B9"/>
<path d="M118.048 33.3144C118.048 33.3144 114.097 32.8997 112.641 34.1438C112.176 34.5397 111.678 34.8951 111.152 35.2061C110.712 35.4688 110.346 35.8374 110.087 36.278C109.829 36.7186 109.685 37.2171 109.67 37.7276L108.897 61.308C108.897 61.308 120.647 60.2712 122.831 61.308C122.831 61.308 122.935 58.9233 123.143 58.6123C123.295 58.3856 123.557 49.3427 123.688 44.4582C123.777 41.6995 122.8 39.0119 120.958 36.9518C120.327 36.2562 119.623 35.6731 118.88 35.388C118.88 35.388 119.088 33.4181 118.048 33.3144Z" fill="#575A89"/>
<path d="M111.705 35.388C111.12 35.5416 110.593 35.8642 110.191 36.3153C109.789 36.7664 109.529 37.3259 109.445 37.9236L107.962 48.4517L105.882 56.8497C105.882 56.8497 104.842 57.7828 105.258 58.3012C105.674 58.8196 104.738 60.9969 104.738 60.9969L107.338 61.8264C107.338 61.8264 107.65 59.6491 108.17 59.5454C108.627 59.4543 113.741 45.8304 114.974 42.53C115.144 42.0749 115.24 41.8161 115.24 41.8161C115.24 41.8161 115.032 34.8696 111.705 35.388Z" fill="#575A89"/>
<path opacity="0.1" d="M115.188 41.7644L108.897 58.7336C108.897 58.7336 114.98 47.2594 115.188 41.7644Z" fill="black"/>
<path d="M115.125 30.0783C114.773 30.0574 114.43 30.1759 114.08 30.2222C112.831 30.3876 111.531 29.4834 111.255 28.2568C111.233 28.0935 111.184 27.9349 111.11 27.7873C110.918 27.4742 110.48 27.4145 110.119 27.4865C109.758 27.5585 109.415 27.727 109.047 27.7462C108.48 27.7759 107.935 27.4274 107.632 26.9474C107.346 26.4522 107.224 25.8796 107.285 25.3113L107.557 25.5962C107.667 25.3629 107.71 25.1033 107.68 24.847C107.824 24.8087 107.976 24.8079 108.121 24.8448C108.265 24.8817 108.398 24.955 108.506 25.0577C108.746 25.0831 108.565 24.6138 108.743 24.4516C108.83 24.3984 108.933 24.3792 109.033 24.3974C109.544 24.4023 109.957 24.0129 110.359 23.6994C111.056 23.1575 111.872 22.7867 112.739 22.617C113.316 22.5049 113.929 22.4869 114.476 22.701C114.917 22.8985 115.315 23.1803 115.648 23.5304C116.504 24.3512 117.263 25.3156 117.619 26.4453C117.908 27.3706 117.916 28.3607 117.642 29.2906C117.499 29.7736 117.066 31.4275 116.433 31.4661C115.638 31.5145 116.115 30.1373 115.125 30.0783Z" fill="#2F2E41"/>
<rect x="54" y="13" width="36" height="16" fill="#DA924E"/>
<path d="M45.2763 79.0875C45.2763 95.8496 35.3647 101.703 23.1389 101.703C22.8543 101.703 22.5712 101.7 22.2896 101.692C21.7234 101.68 21.1618 101.655 20.6079 101.615C9.57309 100.831 1 94.6755 1 79.0875C1 62.9565 21.5003 42.601 23.0466 41.0897C23.0474 41.0888 23.0485 41.0883 23.0497 41.0882C23.1082 41.0294 23.1389 41 23.1389 41C23.1389 41 45.2763 62.3239 45.2763 79.0875Z" fill="#006747"/>
<path d="M22.3313 99.1383L30.429 87.764L22.3113 100.387L22.2898 101.692C21.7236 101.68 21.162 101.655 20.6081 101.615L21.4805 84.845L21.4743 84.7151L21.4897 84.6903L21.5713 83.1063L13.4336 70.4512L21.5959 81.9183L21.6159 82.254L22.2759 69.5834L15.3091 56.5076L22.3606 67.3574L23.0468 41.0897L23.0499 41V41.0882L22.936 61.8026L29.8705 53.5901L22.9068 63.5861L22.7237 74.931L29.1997 64.044L22.696 76.6016L22.5944 82.9083L31.9953 67.7534L22.5591 85.1095L22.3313 99.1383Z" fill="#F2F2F2"/>
</g>
<defs>
<clipPath id="clip0_568_9413">
<rect width="138" height="103" fill="white"/>
</clipPath>
</defs>
</svg>
