<?xml version="1.0" encoding="utf-8"?>
<!-- Generator: Adobe Illustrator 19.0.0, SVG Export Plug-In . SVG Version: 6.00 Build 0)  -->
<svg version="1.1" width="77" height="32" id="Layer_1" xmlns="http://www.w3.org/2000/svg" xmlns:xlink="http://www.w3.org/1999/xlink" x="0px" y="0px"
	 viewBox="-410 474.9 378 253.1" style="enable-background:new -410 474.9 378 253.1;" xml:space="preserve">
<style type="text/css">
	.st0{fill:#8B3392;}
</style>
<polygon class="st0" points="-146.6,516 -191.5,560.9 -188.3,586.1 -180.1,568.8 -154.5,601.5 -118.6,491.2 -238,540.8 
	-205.7,557.7 "/>
<g>
	<path class="st0" d="M-185.6,594.8c0,0-38,0-47.3,0c-36,5.5-39.8,57.9-0.4,65h47.6v-47.2c15.9,0.5,19.2,20.3,7.5,27.6
		c2.4,2.8,11.8,13,11.8,13C-141.5,631.6-155.7,596.5-185.6,594.8z M-202.9,642c0,0-24.4,0-26.4,0c-16.3,1-21.7-26-1.6-29.5
		c5.9,0,28,0,28,0V642z"/>
</g>
<path class="st0" d="M-86.8,618.4c-7.9,0-17.3,0-17.3,0l-7.5,17.3c0,0,20.1,0,22.1,0c4.4-0.2,4.6,6.3,0,6.7c-5.7,0-38.2,0-38.2,0
	v-29.9H-69v-17.7c0,0-8.2,0-8.7,0c-2.6-36.6-46.4-37.7-57.9-17.7c2.3,1.9,13,11.4,13,11.4c6.6-10.3,24.9-9.8,27.6,6.3h-50v65h56.3
	c12.8-0.2,18.7-9.6,20.1-17.7C-67.9,629-75.7,620.4-86.8,618.4z"/>
<path class="st0" d="M-255.3,594.8h-22.8c-7.3,8.9-19.9,44.7,5.1,71.7c0,0,10.8-9.3,13-11C-267.7,647.9-280.5,617.4-255.3,594.8z"/>
<path class="st0" d="M-313.4,667c0,7.9-6.4,14.3-14.3,14.3c-7.9,0-14.3-6.4-14.3-14.3s6.4-14.3,14.3-14.3
	C-319.8,652.7-313.4,659.1-313.4,667z"/>
<g>
	<g>
		<path class="st0" d="M-343.9,594.8c-36,5.5-39.8,57.9-0.4,65h0.3c2.8-6.2,9-10.5,16.3-10.5c7.2,0,13.5,4.3,16.3,10.5h14.8
			c0-2.2,0-65,0-65S-334.6,594.8-343.9,594.8z M-314,642c0,0-24.4,0-26.4,0c-16.3,1-21.7-26-1.6-29.5c5.9,0,28,0,28,0V642z"/>
	</g>
</g>
<g>
	<g>
		<g>
			<path class="st0" d="M-326.9,579.4c5.8-1,8.7-12.9-0.8-15.6c-1.1,0-15.4,0-15.4,0v22.6h6.3v-7.1l7.1,7.1h9.9L-326.9,579.4z
				 M-327.7,571.4c0,0.8-0.7,1.5-1.5,1.5h-7.5v-3.1h7.5c0.8,0,1.5,0.7,1.5,1.5V571.4z"/>
		</g>
	</g>
	<g>
		<g>
			<path class="st0" d="M-308.9,563.5c-6.3,0-11.5,5.1-11.5,11.5c0,6.3,5.1,11.5,11.5,11.5c6.3,0,11.5-5.1,11.5-11.5
				S-302.6,563.5-308.9,563.5z M-308.9,580c-2.8,0-5-2.3-5-5c0-2.8,2.3-5,5-5c2.8,0,5,2.3,5,5C-303.8,577.8-306.1,580-308.9,580z"/>
		</g>
	</g>
	<path class="st0" d="M-243.8,570h10.3v-6.6h-8.7c-6.9,0-12.5,5.2-12.5,11.5c0,6.3,5.6,11.5,12.5,11.5h8.7v-6.6h-10.3
		c-1.5,0-2.9-0.7-3.7-1.8h14v-6h-14C-246.7,570.7-245.3,570-243.8,570z"/>
	<g>
		<path class="st0" d="M-284.8,579.7c-2.6,0-4.7-2.1-4.7-4.7v-0.3c0-2.6,2.1-4.7,4.7-4.7h9.8v-6.6h-8.8c-6.9,0-12.5,5.2-12.5,11.5
			c0,6.3,5.6,11.5,12.5,11.5h8.8v-6.6L-284.8,579.7L-284.8,579.7z"/>
	</g>
	<polygon class="st0" points="-209.5,563.8 -231.8,563.8 -231.8,569.8 -223.6,569.8 -223.6,586 -217.7,586 -217.7,569.8 
		-209.5,569.8 	"/>
	<polygon class="st0" points="-262.4,574.8 -251.5,563.8 -260.3,563.8 -266.5,570 -266.5,563.8 -272.5,563.8 -272.5,586 -266.5,586 
		-266.5,579.7 -260.2,586 -251.3,586 	"/>
</g>
<g>
	<path class="st0" d="M-172.9,670.7c-1,0.2-1.8,0.8-2.6,1.9c-0.7,1-1.1,2-1.1,3c0,0.6,0.1,1.2,0.4,1.8c0.3,0.7,0.8,1.1,1.3,1.1
		c0.3,0,0.6-0.1,1.1-0.5l0.6,1.7c-0.6,0.3-1.1,0.5-1.6,0.5c-0.7,0-1.4-0.3-2.1-0.8c-0.4-0.3-0.7-0.9-1.1-1.8
		c-0.2-0.4-0.3-1.1-0.3-1.9v-0.6c0-1.3,0.7-2.9,2.1-4.5c0.3-0.3,0.8-0.8,1.5-1.5h2.2v1.6C-172.6,670.7-172.8,670.7-172.9,670.7z"/>
	<path class="st0" d="M-163,670.7v9.4h-1.9v-1.2c0-0.4-0.3-0.9-1-1.6c-0.5-0.5-1-0.9-1.5-1.3c-0.6-0.4-1.2-0.6-1.9-0.6
		s-1.2,0.3-1.5,0.9c0,0.1-0.1,0.1-0.1,0.3s0.1,0.5,0.4,0.7c0.2,0.2,0.5,0.3,0.7,0.3s0.7-0.1,1.4-0.4l0.6,1.7
		c-0.8,0.4-1.5,0.6-2.1,0.6s-1.2-0.2-1.7-0.5c-0.5-0.3-0.9-0.8-1.1-1.4c-0.1-0.2-0.2-0.5-0.2-0.9c0-1.1,0.4-1.9,1.3-2.4
		c0.6-0.4,1.3-0.6,2-0.6c0.1,0,0.1,0,0.2,0c0-0.3-0.2-0.7-0.5-1.1c-0.3-0.4-0.7-0.6-1-0.6h-2.1v-1.1h-0.8v-1.6h12v1.6h-1.2V670.7z
		 M-164.9,670.7h-4.4c1.2,0.8,1.9,1.9,1.9,3.2c0.8,0.3,1.6,0.9,2.5,1.9V670.7z"/>
	<path class="st0" d="M-159.4,670.7v9.4h-1.9v-9.4h-1.4v-1.6h4.5v1.6H-159.4z"/>
	<path class="st0" d="M-150.3,670.7h-8.4v-1.6h11.7v1.6h-1.3v9.4h-1.7c-0.2-0.5-1-1.2-2.4-2.2c-0.6-0.4-1.4-0.8-2.5-1.2
		c-1.1-0.4-2-0.6-2.7-0.6l-0.5-1.9c0.4-0.3,1.6-1,3.6-1.8C-153.7,672-152.3,671.4-150.3,670.7z M-150.2,672.7
		c-0.3,0.1-0.7,0.3-1.1,0.4c-0.6,0.3-1.7,0.7-3.2,1.4l-0.4,0.2c1.5,0.5,2.9,1.3,4.2,2.3c0.2,0.1,0.3,0.2,0.4,0.3v-4.6H-150.2z"/>
	<path class="st0" d="M-144.8,670.7v9.4h-1.9v-9.4h-1.3v-1.6h4.5v1.6H-144.8z"/>
	<path class="st0" d="M-144.2,670.7v-1.6h5.5c0-0.1,0-0.1,0-0.1c0-0.9-0.4-1.4-1.2-1.7c-0.1,0-0.2,0-0.4,0c-0.2,0-0.4,0-0.7,0.1
		c-0.4,0.1-0.6,0.2-0.7,0.2c-0.3,0.1-0.6,0.2-0.8,0.3c-0.3,0.2-0.7,0.4-1.1,0.6l-0.6-1.4c0.7-0.5,1.7-0.9,2.8-1.3
		c0.5-0.1,1-0.2,1.4-0.2c0.5,0,1,0.2,1.6,0.5c1,0.6,1.5,1.6,1.5,3.1h1.1v1.6h-8.4V670.7z M-137.7,681.6c-0.8-0.7-1.6-1.3-2.4-1.9
		c-0.4-0.3-1.1-0.6-2-0.9c-0.8-0.3-1.2-0.4-1.3-0.4v-2.2c0.2,0,0.4,0,0.7,0c0.3,0,0.6,0,0.7,0c0.8,0,1.5-0.1,2.1-0.3
		c1-0.4,1.5-0.9,1.5-1.5c0-0.4-0.2-0.8-0.6-1.1c-0.4-0.2-0.7-0.4-1.1-0.6c-0.1-0.1-0.2-0.1-0.3-0.1c-0.2,0-0.5,0.1-0.7,0.2
		c-0.3,0.2-0.5,0.3-0.5,0.5c0.1,0.5,0.6,0.7,1.5,0.6l-1,1.6c-0.4,0-0.8-0.1-1.3-0.4c-0.8-0.5-1.2-1.2-1.2-1.9c0-0.8,0.4-1.3,1.2-1.7
		c0.6-0.3,1.4-0.5,2.2-0.5c0.4,0,0.7,0.1,0.9,0.2c0.3,0.1,0.5,0.2,0.8,0.4c1.3,0.6,1.9,1.6,1.9,2.9c0,0.9-0.4,1.7-1.2,2.3
		c-0.6,0.4-1.5,0.8-2.6,1c0.3,0.2,0.8,0.4,1.4,0.8c1.1,0.8,1.9,1.5,2.6,2.2L-137.7,681.6z"/>
	<path class="st0" d="M-124.5,670.7v9.4h-1.9v-3.7c0-0.3-0.1-0.7-0.4-1c-0.3-0.3-0.6-0.5-0.9-0.5s-0.6,0.2-0.8,0.5
		c-0.3,0.4-0.4,0.8-0.4,1.2h-2c0-0.5-0.1-1-0.4-1.3c-0.3-0.4-0.6-0.6-0.9-0.6s-0.6,0.1-0.8,0.3c-0.3,0.2-0.4,0.4-0.4,0.7l-0.1,0.5
		v0.2c0,1,0.6,1.4,1.8,1.4c0.2,0,0.5,0,1-0.1l-0.7,1.9c-0.4,0-0.6,0.1-0.7,0.1c-0.9,0-1.7-0.3-2.4-1c-0.3-0.2-0.5-0.6-0.7-1.1
		s-0.3-0.9-0.3-1.3c0-1,0.3-1.8,0.9-2.5c0.6-0.6,1.4-0.9,2.4-0.9c0.9,0,1.7,0.4,2.4,1.3c0.7-0.9,1.4-1.3,2.2-1.3
		c0.4,0,0.9,0.2,1.3,0.6v-2.8h-10.1v-1.6h13v1.6L-124.5,670.7L-124.5,670.7z"/>
	<path class="st0" d="M-110.5,670.7h-8.4v-1.6h11.7v1.6h-1.3v9.4h-1.7c-0.2-0.5-1-1.2-2.4-2.2c-0.6-0.4-1.4-0.8-2.5-1.2
		c-1.1-0.4-2-0.6-2.7-0.6l-0.5-1.9c0.4-0.3,1.6-1,3.6-1.8C-113.8,672-112.4,671.4-110.5,670.7z M-110.4,672.7
		c-0.3,0.1-0.7,0.3-1.1,0.4c-0.6,0.3-1.7,0.7-3.2,1.4l-0.4,0.2c1.5,0.5,2.9,1.3,4.2,2.3c0.2,0.1,0.3,0.2,0.4,0.3v-4.6H-110.4z"/>
	<path class="st0" d="M-104.1,670.7c-0.6,0.8-0.9,1.5-0.9,2c0,0.2,0.3,1.2,0.9,3c0.3,0.9,0.5,1.6,0.5,2.2c0,1.1-0.6,1.9-1.8,2.3
		c-0.4,0.1-1,0.3-2,0.4l0.3-1.6c1.1-0.2,1.7-0.6,1.7-1.2c0-0.5-0.2-1.3-0.7-2.3c-0.5-1.1-0.7-1.8-0.7-2.3c0-0.6,0.3-1.4,0.8-2.3
		h-1.9v-1.6h5.2v1.6h-1.4V670.7z"/>
	<path class="st0" d="M-100.1,670.7v9.4h-1.9v-9.4h-1.4v-1.6h4.5v1.6H-100.1z"/>
	<path class="st0" d="M-95.8,675.1c-0.9,0-1.6-0.3-2.1-0.8c-0.5-0.6-0.8-1.3-0.8-2.1c0-0.8,0.3-1.5,0.8-2s1.2-0.8,2-0.8
		c1.1,0,1.9,0.6,2.4,1.7c0.2,0.5,0.3,0.9,0.3,1.4c0,0.8-0.2,1.5-0.7,2C-94.3,674.9-95,675.1-95.8,675.1z M-93.8,681.1
		c-2.4-2-4-3.2-4.8-3.6v-2.6c3.3,2.3,5.4,4.2,6.4,5.6v1.9L-93.8,681.1z M-95.4,671.3c-0.2-0.1-0.4-0.2-0.6-0.2
		c-0.7,0.1-1.1,0.5-1.1,1c0,0.3,0.1,0.6,0.3,0.8c0.2,0.3,0.5,0.4,0.8,0.4h0.3c0.5-0.2,0.8-0.5,0.8-1C-94.8,672-95,671.6-95.4,671.3z
		"/>
	<path class="st0" d="M-80.4,668c-2.2-1.4-4-2.1-5.3-2.1c-1.6,0-2.8,0.5-3.6,1.6c-0.3,0.4-0.4,0.9-0.4,1.6h1.3v1.6h-1.3v9.4h-1.9
		v-9.4H-93v-1.6h1.2c0-1.3,0.5-2.4,1.3-3.2c0.8-0.8,2-1.3,3.4-1.5c0.1,0,0.4,0,0.8-0.1h0.4c1.1,0,2.3,0.2,3.4,0.7
		c0.6,0.3,1.6,0.9,3,1.7L-80.4,668z"/>
	<path class="st0" d="M-82,670.7L-82,670.7c0.8,0.1,1.6,0.3,2.4,0.8c1.2,0.6,1.8,1.5,1.8,2.7c0,0.7-0.2,1.2-0.6,1.7
		s-0.9,0.8-1.6,0.9c-0.6,0.1-1.2,0.2-1.6,0.1v-1.8c0.2,0,0.4,0,0.6,0c0.9,0,1.4-0.3,1.4-1c0-0.8-0.8-1.3-2.4-1.5v7.5h-1.7
		c-0.3-0.5-0.5-0.9-0.8-1.2c-0.1-0.1-0.3-0.4-0.7-0.9c-0.1-0.2-0.3-0.4-0.7-0.6c-0.3-0.3-0.5-0.5-0.7-0.6c-0.1-0.1-0.2-0.2-0.4-0.3
		c-0.8-0.3-1.5-0.4-2-0.4l-0.5-1.9c0.4-0.3,1.3-0.9,2.8-1.7c0.1-0.1,0.5-0.3,1.3-0.8c0.3-0.2,0.7-0.4,1.4-0.8v-0.1h-5.9v-1.6h12.8
		v1.6L-82,670.7L-82,670.7z M-83.8,672.9c-0.3,0.2-0.8,0.5-1.4,0.9c-0.2,0.1-0.3,0.2-0.5,0.4c-0.2,0.2-0.4,0.4-0.6,0.6
		c0.2,0.2,0.5,0.4,1,0.8c0.4,0.5,0.9,1,1.6,1.7v-4.4H-83.8z"/>
	<path class="st0" d="M-74.1,675.1c-0.9,0-1.6-0.3-2.1-0.8c-0.5-0.6-0.8-1.3-0.8-2.1c0-0.8,0.3-1.5,0.8-2s1.2-0.8,2-0.8
		c1.1,0,1.9,0.6,2.4,1.7c0.2,0.5,0.3,0.9,0.3,1.4c0,0.8-0.2,1.5-0.7,2C-72.6,674.9-73.3,675.1-74.1,675.1z M-72.1,681.1
		c-2.4-2-4-3.2-4.8-3.6v-2.6c3.3,2.3,5.4,4.2,6.4,5.6v1.9L-72.1,681.1z M-73.7,671.3c-0.2-0.1-0.4-0.2-0.6-0.2
		c-0.7,0.1-1.1,0.5-1.1,1c0,0.3,0.1,0.6,0.3,0.8c0.2,0.3,0.5,0.4,0.8,0.4h0.3c0.5-0.2,0.8-0.5,0.8-1
		C-73.1,672-73.3,671.6-73.7,671.3z"/>
</g>
<g>
	<polygon class="st0" points="-280.9,680.8 -277.4,682 -276,680.8 -279.5,679.6 	"/>
	<g>
		<path class="st0" d="M-279.7,671.2v-2.1h-27.4v2.1h4.6v4.7c0,0,3.5,0,3.9,0c0,0,1.1-0.4,1.4-0.9c0,0.7,0,1.6,0,1.9
			c0,0.8-0.6,1.5-1.4,1.5c-0.8,0-5.5,0-5.8,0c-0.3,0-0.7-0.2-0.7-1.5c0-1.4,0-4.4,0-4.4h-2c0,0,0,5.2,0,5.6c0,0.5,0.3,2.1,1.8,2.1
			s7.6,0,7.9,0c1.2,0,2.1-1.3,2.2-2.3c0-2.3,0-5.4,0-5.4h-1.9c-0.2,0.8-0.1,1.4-0.9,1.6c-0.9,0-2.3,0-2.3,0v-2.9h6.7v9h2.3v-9h1.6v9
			c0,0,7.1,0,7.7,0c0.5,0,2.3-0.5,2.3-2.4c0-2,0-5.3,0-5.3h-1.9c0,0.5-0.1,1.3-0.9,1.3c-0.9,0-5.1,0-5.1,0v-2.5h7.9V671.2z
			 M-282.7,675.6c0.3,0.1,0.8-0.5,1.2-0.9c0,0.5,0,1.3,0,2.2c0,0.8-0.7,1.5-1.2,1.5s-4.9,0-4.9,0v-2.8
			C-287.6,675.6-283.1,675.6-282.7,675.6z"/>
	</g>
	<rect x="-277.1" y="673.7" class="st0" width="4.6" height="2.5"/>
	<g>
		<path class="st0" d="M-269.9,669.1v2.1h7.7v1.2h-7.7c0,0,0,4.7,0,5c0.2,1.6,1,2.7,2.6,2.7c1.9,0,6.9,0,6.9,0v-9h1.6v9h2.1V669
			L-269.9,669.1L-269.9,669.1z M-262.3,678.7c0,0-4.5,0-4.6,0c-0.7-0.1-1.2-0.9-1.2-1.9c0-0.9,0-2.5,0-2.5h5.8V678.7z"/>
	</g>
	<path class="st0" d="M-246.7,671.2h9.5v1.2c-0.4,0-2.5,0-2.8,0c-0.1,0.9-1.5,1.4-1.9,0c-1.5,0-4.8,0-4.8,0s0,4.8,0,5.3
		s0.1,2.2,1.5,2.4c1.3,0,3.8,0,3.8,0v-1.8c0,0-2.1,0-2.6,0c-0.5-0.2-0.9-0.5-0.9-1.2c0-0.9,0-2.8,0-2.8h2.6v1.6h2.3v-1.2
		c-0.2-0.6,2.4-0.5,2.6,0c0,0.8,0,5.5,0,5.5h2.1v-9h1.4v9h2.1v-11.1h-14.8v2.1H-246.7z"/>
	<g>
		<g>
			<path class="st0" d="M-250,669.7c-0.9,0-4.9,0-4.9,0s0,2.4,0,2.9c0.2,0.9,0.7,2.1,2.4,2.2c1.7,0,3.9,0,3.9,0v-3.6
				C-248.7,670.6-249.1,669.8-250,669.7z M-251.5,672.8c-0.9,0-1.6-0.3-1.6-0.7c0-0.4,0.7-0.7,1.6-0.7c0.9,0,1.6,0.3,1.6,0.7
				C-249.9,672.5-250.6,672.8-251.5,672.8z"/>
		</g>
	</g>
	<polygon class="st0" points="-254.6,675.9 -254.6,677.7 -248.6,680.2 -248.6,678.2 	"/>
	<g>
		<g>
			<path class="st0" d="M-199.9,669.7c-0.9,0-4.9,0-4.9,0s0,2.4,0,2.9c0.2,0.9,0.7,2.1,2.4,2.2c1.7,0,3.9,0,3.9,0v-3.6
				C-198.6,670.6-199.1,669.8-199.9,669.7z M-201.4,672.8c-0.9,0-1.6-0.3-1.6-0.7c0-0.4,0.7-0.7,1.6-0.7c0.9,0,1.6,0.3,1.6,0.7
				C-199.8,672.5-200.5,672.8-201.4,672.8z"/>
		</g>
	</g>
	<polygon class="st0" points="-204.5,675.9 -204.5,677.7 -198.6,680.2 -198.6,678.2 	"/>
	<path class="st0" d="M-187.2,672.4v-1.2h3.8v-2.1h-13.4v2.1h7.7v1.2h-7.7c0,0,0,4.7,0,5c0.2,1.6,1,2.7,2.6,2.7c1.9,0,6.9,0,6.9,0
		v-5.5h1.9c0.3,0,0.4-0.2,0.5,0.3c0,0.6,0,0.9,0,0.9c-0.1,0.5-0.2,0.8-0.5,0.9c-0.3,0-0.7,0-0.7,0v1.9h1.4c0.5-0.1,1.3-0.6,1.4-1.2
		c0-1,0-5,0-5L-187.2,672.4L-187.2,672.4z M-189.1,678.7c0,0-4.5,0-4.6,0c-0.7-0.1-1.2-0.9-1.2-1.9c0-0.9,0-2.5,0-2.5h5.8v0.3l0,0
		V678.7z"/>
	<g>
		<path class="st0" d="M-225.6,669.1v2.1h7.7v1.2h-7.7c0,0,0,4.7,0,5c0.2,1.6,1,2.7,2.6,2.7c1.9,0,6.9,0,6.9,0v-9h2.4l-0.9,1.8v1.2
			c0,0,1.3,0,1.6,0c0.9,0.1,1.2,0.7,1.2,2.2c0,1-0.2,1.8-1,1.9c-0.5,0-1.5,0-1.5,0v1.9c0,0,1.2,0,1.6,0c0.5,0,2.6,0.2,2.8-1.9
			c0.2-4.2,0.4-5.3-2.6-5.6l0.4-1.5h3.3v9h2.1V669L-225.6,669.1L-225.6,669.1z M-217.9,678.7c0,0-4.5,0-4.6,0
			c-0.7-0.1-1.2-0.9-1.2-1.9c0-0.9,0-2.5,0-2.5h5.8V678.7z"/>
	</g>
</g>
</svg>
