<svg width="205" height="196" viewBox="0 0 205 196" fill="none" xmlns="http://www.w3.org/2000/svg">
<path opacity="0.4" d="M204.596 112.747C208.14 133.067 188.006 161.559 158.776 177.191C111.619 202.407 27.2466 191.209 4.43673 128.482C-7.69914 95.122 6.93285 75.3116 25.7503 69.0437C45.0574 62.6172 71.1151 73.5739 84.3335 56.7492C94.2766 44.0893 106.206 30.8088 121.513 24.6788C146.771 14.5633 187.799 22.9618 174.677 72.8085C169.34 93.0465 199.845 85.5098 204.596 112.747Z" fill="#DEEAFF"/>
<path d="M4.42981 138.342C4.42981 138.342 8.58083 151.119 17.7103 160.669L28.5981 161.731L20.0892 162.972C21.2407 164.013 22.4819 164.992 23.8127 165.896C32.0734 171.529 40.9684 175.156 47.7948 176.087C52.0424 176.673 55.497 176.204 57.4967 174.529C62.7027 170.157 56.0555 159.207 42.6509 150.071C38.824 147.457 34.0524 145.382 29.2049 143.755C28.7981 143.617 28.3913 143.479 27.9775 143.348L27.3432 148.85L25.378 142.548C21.6407 141.472 17.8137 140.562 13.911 139.817L13.5731 142.796L12.5595 139.569C7.7258 138.687 4.42981 138.342 4.42981 138.342Z" fill="url(#paint0_linear_183_1185)"/>
<path opacity="0.1" d="M31.2391 144.451C32.5561 153.429 35.7969 170.005 49.2981 176.253C53.5456 176.839 55.497 176.204 57.4967 174.529C62.7027 170.157 56.0555 159.207 42.6509 150.071C38.824 147.458 36.0865 146.078 31.2391 144.451Z" fill="#231F20"/>
<path opacity="0.1" d="M58.7792 172.377L9.78754 143.03L55.1936 175.556L58.7792 172.377Z" fill="#231F20"/>
<path d="M57.6001 174.577C57.014 174.956 56.3796 175.239 55.7107 175.425C55.0488 175.605 54.373 175.687 53.6835 175.667C46.6916 175.474 38.5895 165.227 34.7764 151.188C34.3695 149.657 34.0799 148.099 33.9007 146.513L41.6786 149.168L33.6524 143.086C33.218 129.219 39.1549 114.367 39.1549 114.367C39.1549 114.367 41.5683 116.235 44.8367 119.345L43.306 123.076L45.7469 120.221C48.3603 122.765 50.7874 125.448 53.0215 128.261L50.029 135.542L54.5385 130.254C57.5656 134.391 60.2065 139.038 61.5029 143.817C65.3091 157.849 63.5094 170.812 57.6001 174.577Z" fill="url(#paint1_linear_183_1185)"/>
<path opacity="0.1" d="M57.6001 174.577C57.014 174.956 56.3796 175.239 55.7108 175.425C55.0488 175.604 54.3731 175.687 53.6835 175.666L39.3756 118.214L57.6001 174.577Z" fill="#231F20"/>
<path opacity="0.1" d="M57.6001 174.57C57.3518 174.729 57.0967 174.873 56.8347 174.997C54.7799 176.28 51.608 176.611 47.7879 176.087C46.1882 175.866 44.4713 175.501 42.6716 174.991V117.345C43.3266 117.931 44.0575 118.6 44.8367 119.338L43.3059 123.068L45.7469 120.214C48.3534 122.758 50.7874 125.44 53.0215 128.254L50.0289 135.542L54.5385 130.253C57.5656 134.391 60.2065 139.038 61.5029 143.823C65.3091 157.849 63.5163 170.812 57.6001 174.57Z" fill="#231F20"/>
<path d="M199.438 139.935C199.438 139.935 195.287 152.712 186.158 162.262L175.27 163.324L183.779 164.565C182.627 165.607 181.386 166.586 180.055 167.489C171.795 173.123 162.899 176.749 156.073 177.68C151.825 178.266 148.371 177.798 146.371 176.122C141.165 171.75 147.812 160.8 161.217 151.664C165.044 149.051 169.816 146.975 174.663 145.348C175.07 145.21 175.477 145.072 175.89 144.941L176.525 150.444L178.49 144.141C182.227 143.066 186.054 142.155 189.957 141.411L190.295 144.389L191.308 141.162C196.142 140.28 199.438 139.935 199.438 139.935Z" fill="url(#paint2_linear_183_1185)"/>
<path opacity="0.1" d="M172.636 146.044C171.319 155.022 168.078 171.599 154.577 177.846C150.329 178.432 148.378 177.798 146.378 176.122C141.172 171.75 147.819 160.801 161.224 151.664C165.044 149.051 167.781 147.672 172.636 146.044Z" fill="#231F20"/>
<path opacity="0.1" d="M145.089 173.971L194.087 144.624L148.681 177.15L145.089 173.971Z" fill="#231F20"/>
<path d="M146.268 176.163C146.854 176.542 147.488 176.825 148.157 177.011C148.819 177.191 149.495 177.273 150.184 177.253C157.176 177.059 165.278 166.813 169.092 152.774C169.498 151.243 169.788 149.685 169.967 148.099L162.189 150.754L170.215 144.672C170.65 130.805 164.713 115.953 164.713 115.953C164.713 115.953 162.3 117.821 159.031 120.931L160.562 124.662L158.121 121.807C155.508 124.351 153.08 127.034 150.846 129.847L153.839 137.128L149.329 131.84C146.302 135.977 143.661 140.624 142.365 145.403C138.559 159.435 140.358 172.405 146.268 176.163Z" fill="url(#paint3_linear_183_1185)"/>
<path opacity="0.1" d="M146.268 176.163C146.854 176.542 147.488 176.825 148.157 177.011C148.819 177.191 149.495 177.273 150.184 177.253L164.492 119.8L146.268 176.163Z" fill="#231F20"/>
<path opacity="0.1" d="M146.268 176.164C146.516 176.322 146.771 176.467 147.033 176.591C149.088 177.874 152.26 178.205 156.08 177.681C157.68 177.46 159.397 177.095 161.196 176.584V118.939C160.541 119.525 159.81 120.194 159.031 120.932L160.562 124.662L158.121 121.807C155.515 124.352 153.08 127.034 150.846 129.847L153.839 137.136L149.329 131.847C146.302 135.984 143.661 140.632 142.365 145.417C138.559 159.436 140.358 172.406 146.268 176.164Z" fill="#231F20"/>
<path d="M46.7813 47.3643C45.5677 47.3643 44.5886 46.3851 44.5886 45.1715V38.2279C44.5886 37.0143 45.5677 36.0352 46.7813 36.0352V47.3643Z" fill="url(#paint4_linear_183_1185)"/>
<path d="M46.7813 72.8079C45.5677 72.8079 44.5886 71.8288 44.5886 70.6152V53.8939C44.5886 52.6803 45.5677 51.7012 46.7813 51.7012V72.8079Z" fill="url(#paint5_linear_183_1185)"/>
<path d="M158.038 72.8079C159.252 72.8079 160.231 71.8288 160.231 70.6152V53.8939C160.231 52.6803 159.252 51.7012 158.038 51.7012V72.8079Z" fill="url(#paint6_linear_183_1185)"/>
<path d="M136.421 0H68.3017C55.9659 0 45.9538 10.0121 45.9538 22.3479V175.832C48.0776 176.97 50.2703 178.039 52.5251 179.039C52.5251 179.039 66.964 183.852 74.9006 185.575C76.1073 185.837 77.3278 186.086 78.5552 186.32C78.562 186.32 78.562 187.03 78.562 187.03C79.0171 187.113 79.4722 186.486 79.9273 186.568C82.4717 187.016 85.0575 187.396 87.6777 187.699C98.1242 188.913 109.102 188.954 120.279 187.699C123.168 187.375 126.071 186.961 128.988 186.458C129.636 186.355 130.277 186.237 130.926 186.113C138.669 184.679 152.17 180.39 152.17 180.39C154.453 179.397 156.652 178.328 158.776 177.197V22.3479C158.769 10.0121 148.764 0 136.421 0Z" fill="url(#paint7_linear_183_1185)"/>
<path d="M147.626 11.4394C147.543 11.3567 147.461 11.2739 147.378 11.1912C144.509 8.32272 140.531 6.57129 136.152 6.57129H126.368C125.333 6.57129 124.499 7.40563 124.499 8.43994V11.1981C124.499 13.1426 122.92 14.7216 120.976 14.7216H83.7198C81.7753 14.7216 80.1962 13.1426 80.1962 11.1981V8.43994C80.1962 7.40563 79.3619 6.57129 78.3276 6.57129H68.543C59.7101 6.57129 52.532 13.7563 52.532 22.5824V179.039C58.9447 181.893 65.8676 184.189 73.1561 185.886C73.7353 186.024 74.3214 186.155 74.9075 186.279C76.1211 186.541 77.3347 186.789 78.562 187.023C78.5689 187.023 78.5758 187.023 78.5758 187.023C79.0309 187.106 79.486 187.189 79.9411 187.272C82.4855 187.72 85.0713 188.099 87.6846 188.396C98.1311 189.609 109.109 189.651 120.286 188.396C123.175 188.071 126.085 187.665 128.995 187.154C129.636 187.051 130.284 186.934 130.926 186.817C138.669 185.382 145.744 183.183 152.17 180.383V22.5824C152.163 18.2659 150.446 14.3217 147.626 11.4394Z" fill="#E4E8ED"/>
<path d="M88.6086 10.7089C89.7168 10.7089 90.6152 9.81055 90.6152 8.70236C90.6152 7.59417 89.7168 6.6958 88.6086 6.6958C87.5004 6.6958 86.6021 7.59417 86.6021 8.70236C86.6021 9.81055 87.5004 10.7089 88.6086 10.7089Z" fill="url(#paint8_linear_183_1185)"/>
<path d="M133.704 37.1592L152.163 53.8253V95.9216H93.6905L71.053 75.4906L133.704 37.1592Z" fill="url(#paint9_linear_183_1185)"/>
<path d="M116.638 10.7016H96.3591C95.2558 10.7016 94.3525 9.79829 94.3525 8.69503C94.3525 7.59177 95.2558 6.68848 96.3591 6.68848H116.638C117.742 6.68848 118.645 7.59177 118.645 8.69503C118.638 9.79829 117.742 10.7016 116.638 10.7016Z" fill="url(#paint10_linear_183_1185)"/>
<path d="M129.76 76.9797H74.9282C71.715 76.9797 69.0809 74.3457 69.0809 71.1324V41.4547C69.0809 38.2415 71.715 35.6074 74.9282 35.6074H129.76C132.974 35.6074 135.608 38.2415 135.608 41.4547V71.1324C135.608 74.3457 132.98 76.9797 129.76 76.9797Z" fill="white"/>
<path d="M130.698 53.7837V58.045C130.698 58.2795 130.622 58.4932 130.498 58.6725C130.436 58.7553 130.36 58.8311 130.277 58.9001C130.098 59.038 129.871 59.1207 129.622 59.1207H122.906C122.313 59.1207 121.831 58.638 121.831 58.045V53.7837C121.831 53.1907 122.313 52.708 122.906 52.708H129.622C130.215 52.708 130.698 53.1907 130.698 53.7837Z" fill="url(#paint11_linear_183_1185)"/>
<path opacity="0.3" d="M130.698 54.9352V54.7077H127.692V52.708H127.464V53.501H124.685C124.375 53.501 124.12 53.2458 124.12 52.9356V52.708H123.892V52.9356C123.892 53.3355 124.189 53.6596 124.575 53.7147V54.8387H121.837V55.0662H124.575V56.0247C124.575 56.4246 124.251 56.7487 123.851 56.7487H121.837V56.9762H123.851C124.141 56.9762 124.403 56.8383 124.575 56.6315V56.928C124.575 57.7692 125.258 58.4519 126.099 58.4519H127.616C127.788 58.7139 128.078 58.8863 128.416 58.8863H130.277C130.36 58.8173 130.436 58.7484 130.498 58.6587H128.416C128.016 58.6587 127.692 58.3346 127.692 57.9347V56.9762H130.698V56.7487H127.692V54.9214H130.698V54.9352ZM126.099 58.2312C125.382 58.2312 124.802 57.652 124.802 56.9349V53.7285H127.464V57.9485C127.464 58.045 127.485 58.1485 127.512 58.2381H126.099V58.2312Z" fill="#844317"/>
<path d="M83.6646 53.0735C86.3303 53.0735 88.4914 50.9124 88.4914 48.2467C88.4914 45.5809 86.3303 43.4199 83.6646 43.4199C80.9988 43.4199 78.8378 45.5809 78.8378 48.2467C78.8378 50.9124 80.9988 53.0735 83.6646 53.0735Z" fill="url(#paint12_linear_183_1185)"/>
<path d="M93.6629 65.9607C93.6629 70.36 73.6594 70.1048 73.6594 65.9607C73.6594 60.4375 78.1345 55.9624 83.6577 55.9624C89.1878 55.9555 93.6629 60.4375 93.6629 65.9607Z" fill="url(#paint13_linear_183_1185)"/>
<g opacity="0.3">
<path d="M110.122 54.7281H100.276C99.524 54.7281 98.9103 54.1144 98.9103 53.3628C98.9103 52.6112 99.524 51.9976 100.276 51.9976H110.122C110.874 51.9976 111.488 52.6112 111.488 53.3628C111.488 54.1144 110.874 54.7281 110.122 54.7281Z" fill="#628DF8"/>
<path d="M110.122 66.6227H100.276C99.524 66.6227 98.9103 66.009 98.9103 65.2574C98.9103 64.5058 99.524 63.8921 100.276 63.8921H110.122C110.874 63.8921 111.488 64.5058 111.488 65.2574C111.488 66.009 110.874 66.6227 110.122 66.6227Z" fill="#628DF8"/>
<path d="M115.197 60.7408H100.269C99.5171 60.7408 98.9034 60.1271 98.9034 59.3755C98.9034 58.6239 99.5171 58.0103 100.269 58.0103H115.197C115.949 58.0103 116.563 58.6239 116.563 59.3755C116.569 60.1271 115.956 60.7408 115.197 60.7408Z" fill="#628DF8"/>
<path d="M115.197 48.6949H100.269C99.5171 48.6949 98.9034 48.0812 98.9034 47.3296C98.9034 46.578 99.5171 45.9644 100.269 45.9644H115.197C115.949 45.9644 116.563 46.578 116.563 47.3296C116.569 48.0812 115.956 48.6949 115.197 48.6949Z" fill="#628DF8"/>
</g>
<path d="M81.6443 96.811L93.5113 107.975L81.7064 119.049L70.3842 108.837L81.6443 96.811Z" fill="url(#paint14_linear_183_1185)"/>
<path d="M79.3137 109.588H72.5355C70.6255 109.588 69.0809 108.044 69.0809 106.134V99.3555C69.0809 97.4454 70.6255 95.9009 72.5355 95.9009H79.3137C81.2237 95.9009 82.7683 97.4454 82.7683 99.3555V106.134C82.7683 108.037 81.2237 109.588 79.3137 109.588Z" fill="white"/>
<path d="M74.5765 106.892C74.2593 106.892 73.9491 106.761 73.7215 106.533L70.9289 103.665C70.4738 103.196 70.4807 102.445 70.9496 101.983C71.4184 101.527 72.17 101.534 72.632 102.003L74.549 103.975L79.1826 98.9761C79.6308 98.4935 80.3824 98.4659 80.8651 98.9141C81.3478 99.3623 81.3754 100.114 80.9272 100.597L75.4385 106.513C75.2178 106.754 74.9075 106.892 74.5834 106.892C74.5903 106.892 74.5834 106.892 74.5765 106.892Z" fill="url(#paint15_linear_183_1185)"/>
<path opacity="0.35" d="M121.52 125.537H94.4834C92.8423 125.537 91.4908 124.192 91.4908 122.544C91.4908 120.903 92.8355 119.552 94.4834 119.552H121.52C123.161 119.552 124.513 120.896 124.513 122.544C124.513 124.185 123.168 125.537 121.52 125.537Z" fill="#628DF8"/>
<path opacity="0.35" d="M121.52 164.764H94.4834C92.8423 164.764 91.4908 163.42 91.4908 161.772C91.4908 160.131 92.8355 158.779 94.4834 158.779H121.52C123.161 158.779 124.513 160.124 124.513 161.772C124.513 163.42 123.168 164.764 121.52 164.764Z" fill="#628DF8"/>
<path opacity="0.35" d="M132.622 145.285H94.4834C92.8423 145.285 91.4908 143.94 91.4908 142.292C91.4908 140.651 92.8355 139.3 94.4834 139.3H132.622C134.263 139.3 135.614 140.644 135.614 142.292C135.607 143.94 134.263 145.285 132.622 145.285Z" fill="#628DF8"/>
<path opacity="0.35" d="M132.622 105.733H94.4834C92.8423 105.733 91.4908 104.389 91.4908 102.741C91.4908 101.1 92.8355 99.748 94.4834 99.748H132.622C134.263 99.748 135.614 101.093 135.614 102.741C135.607 104.389 134.263 105.733 132.622 105.733Z" fill="#628DF8"/>
<path d="M81.6443 116.615L93.5113 127.778L81.7064 138.852L70.3842 128.64L81.6443 116.615Z" fill="url(#paint16_linear_183_1185)"/>
<path d="M79.3136 129.391H72.5355C70.6254 129.391 69.0809 127.847 69.0809 125.937V119.159C69.0809 117.249 70.6254 115.704 72.5355 115.704H79.3136C81.2236 115.704 82.7682 117.249 82.7682 119.159V125.937C82.7682 127.84 81.2236 129.391 79.3136 129.391Z" fill="white"/>
<path d="M74.5765 126.695C74.2593 126.695 73.9491 126.564 73.7215 126.337L70.9289 123.468C70.4738 122.999 70.4807 122.248 70.9496 121.786C71.4184 121.331 72.17 121.338 72.632 121.806L74.549 123.779L79.1826 118.779C79.6308 118.297 80.3824 118.269 80.8651 118.717C81.3478 119.165 81.3754 119.917 80.9272 120.4L75.4385 126.316C75.2178 126.557 74.9075 126.695 74.5834 126.695C74.5903 126.695 74.5834 126.695 74.5765 126.695Z" fill="url(#paint17_linear_183_1185)"/>
<path d="M81.6443 136.37L93.5113 147.534L81.7064 158.608L70.3842 148.396L81.6443 136.37Z" fill="url(#paint18_linear_183_1185)"/>
<path d="M79.3136 149.14H72.5355C70.6254 149.14 69.0809 147.595 69.0809 145.685V138.907C69.0809 136.997 70.6254 135.453 72.5355 135.453H79.3136C81.2236 135.453 82.7682 136.997 82.7682 138.907V145.685C82.7682 147.595 81.2236 149.14 79.3136 149.14Z" fill="white"/>
<path d="M74.5765 146.444C74.2593 146.444 73.9491 146.313 73.7215 146.085L70.9289 143.217C70.4738 142.748 70.4807 141.996 70.9496 141.534C71.4184 141.079 72.17 141.086 72.632 141.555L74.549 143.527L79.1826 138.528C79.6308 138.045 80.3824 138.018 80.8651 138.466C81.3478 138.914 81.3754 139.666 80.9272 140.148L75.4385 146.065C75.2178 146.306 74.9075 146.444 74.5834 146.444C74.5903 146.444 74.5834 146.444 74.5765 146.444Z" fill="url(#paint19_linear_183_1185)"/>
<path d="M81.6443 156.119L93.5113 167.289L81.7064 178.363L70.3842 168.144L81.6443 156.119Z" fill="url(#paint20_linear_183_1185)"/>
<path d="M79.3136 168.895H72.5355C70.6254 168.895 69.0809 167.351 69.0809 165.441V158.663C69.0809 156.753 70.6254 155.208 72.5355 155.208H79.3136C81.2236 155.208 82.7682 156.753 82.7682 158.663V165.441C82.7682 167.351 81.2236 168.895 79.3136 168.895Z" fill="white"/>
<path d="M74.5765 166.199C74.2593 166.199 73.9491 166.068 73.7215 165.841L70.9289 162.972C70.4738 162.503 70.4807 161.752 70.9496 161.29C71.4184 160.835 72.17 160.841 72.632 161.31L74.549 163.282L79.1826 158.283C79.6308 157.801 80.3824 157.773 80.8651 158.221C81.3478 158.669 81.3754 159.421 80.9272 159.904L75.4385 165.82C75.2178 166.061 74.9075 166.199 74.5834 166.199C74.5903 166.199 74.5834 166.199 74.5765 166.199Z" fill="url(#paint21_linear_183_1185)"/>
<path d="M90.4842 149.092L86.478 151.609L91.5667 159.711L95.5799 157.187L90.4842 149.092Z" fill="url(#paint22_linear_183_1185)"/>
<path opacity="0.3" d="M90.4808 149.091L86.4704 151.612L91.564 159.714L95.5744 157.193L90.4808 149.091Z" fill="white"/>
<path d="M116.928 193.284L114.832 194.601C113.549 195.408 111.853 195.022 111.046 193.74L89.9946 160.249C89.1878 158.966 89.574 157.27 90.8565 156.463L92.9527 155.146C94.2352 154.339 95.9315 154.725 96.7383 156.008L117.79 189.499C118.604 190.781 118.217 192.478 116.928 193.284Z" fill="url(#paint23_linear_183_1185)"/>
<path d="M132.553 163.055L116.094 162.303L103.441 165.592L95.5867 169.019L109.715 190.457C109.715 190.457 121.589 186.147 123.782 184.368C125.975 182.589 127.099 180.941 132.601 181.231L139.248 176.211L132.553 163.055Z" fill="url(#paint24_linear_183_1185)"/>
<path opacity="0.7" d="M109.708 190.464C109.708 190.464 111.481 189.823 113.791 188.927C115.914 188.106 118.493 187.065 120.541 186.127C122.017 185.458 123.217 184.831 123.775 184.376C125.968 182.597 127.092 180.949 132.594 181.238L141.013 172.433L132.553 163.062L116.094 162.311L103.441 165.6L99.8619 166.531L95.5867 169.027L109.708 190.464Z" fill="url(#paint25_linear_183_1185)"/>
<path opacity="0.1" d="M113.791 188.919C115.914 188.099 118.493 187.058 120.541 186.12C120.348 185.113 119.61 184.403 119.61 184.403L103.441 165.592L99.8619 166.523L113.791 188.919Z" fill="#AD2B2B"/>
<path d="M116.928 193.284L114.832 194.601C113.549 195.408 111.853 195.022 111.046 193.74L89.9946 160.249C89.1878 158.966 89.574 157.27 90.8565 156.463L92.9527 155.146C94.2352 154.339 95.9315 154.725 96.7383 156.008L117.79 189.499C118.604 190.781 118.217 192.478 116.928 193.284Z" fill="url(#paint26_linear_183_1185)"/>
<path opacity="0.2" d="M101.331 180.211L101.517 180.162C101.517 180.162 103.365 179.328 104.792 177.797C106.219 176.266 107.199 175.384 106.771 173.825C106.35 172.274 104.475 171.784 103.006 172.57C101.765 173.239 99.7171 175.163 98.669 176.466L101.331 180.211Z" fill="#231F20"/>
<path opacity="0.2" d="M98.2553 175.88C98.8276 175.508 99.5378 174.984 100.151 174.315C101.517 172.853 102.448 172.005 102.041 170.529C101.634 169.047 99.855 168.578 98.4552 169.329C97.6209 169.778 96.3935 170.826 95.4006 171.846L98.2553 175.88Z" fill="#231F20"/>
<path opacity="0.2" d="M104.84 183.665C105.233 183.527 105.723 183.355 106.233 183.134C107.302 182.679 108.447 182.065 108.984 181.369C110.136 179.907 110.743 179.086 109.605 177.501C108.474 175.915 106.102 177.004 106.102 177.004C106.102 177.004 103.144 178.721 102.282 179.473C102.034 179.693 101.758 179.9 101.517 180.128L104.744 183.555L104.84 183.665Z" fill="#231F20"/>
<path opacity="0.2" d="M108.881 186.947C110.019 186.444 110.97 185.637 110.839 184.32C110.619 182.148 107.433 182.548 107.433 182.548C107.433 182.548 106.868 182.693 106.157 182.955C105.716 183.127 105.213 183.334 104.744 183.575L104.737 183.672L107.205 187.602L108.881 186.947Z" fill="#231F20"/>
<path d="M100.648 179.569L99.9585 179.755C98.0484 179.921 97.0624 178.921 97.1176 177.349C97.1244 177.038 97.1934 176.749 97.3451 176.507C98.0967 175.308 100.689 172.763 102.151 171.977C103.613 171.191 105.489 171.681 105.909 173.232C106.33 174.784 105.358 175.673 103.93 177.204C102.496 178.735 100.648 179.569 100.648 179.569Z" fill="url(#paint27_linear_183_1185)"/>
<path d="M96.3866 176.122L95.7247 176.301C93.9043 176.46 92.9665 175.501 93.0148 174.005C93.0217 173.709 93.0837 173.433 93.2285 173.205C93.9456 172.061 96.4142 169.633 97.814 168.882C99.2137 168.13 100.993 168.599 101.4 170.082C101.806 171.564 100.869 172.412 99.5102 173.867C98.1449 175.329 96.3866 176.122 96.3866 176.122Z" fill="url(#paint28_linear_183_1185)"/>
<path d="M105.295 176.604C105.295 176.604 107.667 175.515 108.798 177.101C109.929 178.687 109.329 179.507 108.178 180.969C107.026 182.431 103.165 183.548 103.165 183.548C103.165 183.548 101.055 183.7 100.4 182.3C99.5102 180.397 100.62 179.824 101.482 179.073C102.344 178.321 105.295 176.604 105.295 176.604Z" fill="url(#paint29_linear_183_1185)"/>
<path d="M106.709 182.293C106.709 182.293 109.902 181.893 110.122 184.072C110.315 186.003 108.164 186.837 106.55 187.223C104.937 187.609 103.551 187.968 103.034 186.354C102.544 184.83 102.689 184.155 103.544 183.61C104.813 182.789 106.709 182.293 106.709 182.293Z" fill="url(#paint30_linear_183_1185)"/>
<path d="M123.382 162.779C123.382 162.779 112.391 159.435 109.46 158.828C106.53 158.221 96.9796 160.579 96.9796 160.579L89.8911 164.379C89.5119 164.585 89.3533 165.047 89.5326 165.441C90.0704 166.654 91.5184 168.868 94.6627 167.881C96.7244 167.233 98.5793 166.53 99.9377 165.971C101.455 165.351 103.165 165.447 104.606 166.22L106.888 167.44C106.888 167.44 115.487 176.645 127.112 173.501L123.382 162.779Z" fill="url(#paint31_linear_183_1185)"/>
<path d="M76.8106 153.719C88.9245 153.719 98.7448 143.898 98.7448 131.784C98.7448 119.67 88.9245 109.85 76.8106 109.85C64.6967 109.85 54.8764 119.67 54.8764 131.784C54.8764 143.898 64.6967 153.719 76.8106 153.719Z" fill="#E4E8ED"/>
<path d="M133.415 183.058C133.732 183.279 134.111 183.403 134.518 183.403L147.088 180.3C149.653 179.928 151.205 178.611 151.191 176.363L149.364 161.545C149.35 159.256 147.378 157.47 145.096 157.676L131.257 160.635C130.319 160.745 129.25 161.669 129.705 162.496C131.891 166.447 133.118 174.17 132.594 181.638C132.553 182.217 132.953 182.741 133.415 183.058Z" fill="url(#paint32_linear_183_1185)"/>
<path d="M89.6981 152.284C78.3966 159.387 63.4267 155.973 56.3176 144.672C49.2084 133.37 52.6286 118.4 63.9301 111.291C75.2316 104.189 90.2015 107.602 97.3106 118.904C104.413 130.205 101 145.175 89.6981 152.284ZM65.8401 114.332C56.2141 120.379 53.3112 133.136 59.3584 142.762C65.4057 152.388 78.1621 155.291 87.7881 149.243C97.414 143.196 100.324 130.44 94.2698 120.814C88.2156 111.188 75.466 108.285 65.8401 114.332Z" fill="url(#paint33_radial_183_1185)"/>
<path d="M65.8401 114.332C56.2142 120.379 53.3112 133.136 59.3585 142.762C65.4057 152.388 78.1621 155.291 87.7881 149.243C97.4141 143.196 100.324 130.44 94.2698 120.814C88.2156 111.188 75.4661 108.285 65.8401 114.332Z" fill="url(#paint34_linear_183_1185)"/>
<path d="M85.3126 121.696L99.855 135.384L92.2976 148.968L81.1892 155.332L67.0605 141.19L85.3126 121.696Z" fill="url(#paint35_linear_183_1185)"/>
<path d="M81.534 142.403H70.5496C67.4536 142.403 64.9437 139.893 64.9437 136.797V125.813C64.9437 122.717 67.4536 120.207 70.5496 120.207H81.534C84.63 120.207 87.1399 122.717 87.1399 125.813V136.797C87.1399 139.893 84.63 142.403 81.534 142.403Z" fill="white"/>
<path d="M73.8594 138.032C73.3423 138.032 72.8389 137.825 72.4804 137.446L67.957 132.798C67.2123 132.033 67.233 130.812 67.9915 130.074C68.7569 129.33 69.9773 129.35 70.7151 130.109L73.825 133.302L81.3409 125.193C82.0649 124.413 83.2854 124.365 84.0646 125.089C84.8438 125.813 84.892 127.034 84.168 127.813L75.273 137.411C74.9144 137.797 74.4111 138.025 73.8801 138.025C73.8732 138.032 73.8663 138.032 73.8594 138.032Z" fill="url(#paint36_linear_183_1185)"/>
<defs>
<linearGradient id="paint0_linear_183_1185" x1="36.1617" y1="158.435" x2="13.8933" y2="155.654" gradientUnits="userSpaceOnUse">
<stop stop-color="#359F44"/>
<stop offset="1" stop-color="#67CB4D"/>
</linearGradient>
<linearGradient id="paint1_linear_183_1185" x1="52.0948" y1="147.742" x2="35.4732" y2="140.654" gradientUnits="userSpaceOnUse">
<stop stop-color="#359F44"/>
<stop offset="1" stop-color="#67CB4D"/>
</linearGradient>
<linearGradient id="paint2_linear_183_1185" x1="167.741" y1="160.047" x2="190.009" y2="157.266" gradientUnits="userSpaceOnUse">
<stop stop-color="#359F44"/>
<stop offset="1" stop-color="#67CB4D"/>
</linearGradient>
<linearGradient id="paint3_linear_183_1185" x1="151.776" y1="149.333" x2="168.397" y2="142.245" gradientUnits="userSpaceOnUse">
<stop stop-color="#359F44"/>
<stop offset="1" stop-color="#67CB4D"/>
</linearGradient>
<linearGradient id="paint4_linear_183_1185" x1="45.6886" y1="88.2099" x2="45.6886" y2="24.7522" gradientUnits="userSpaceOnUse">
<stop stop-color="#1E5CA2"/>
<stop offset="0.3478" stop-color="#3F73B0"/>
<stop offset="1" stop-color="#85A5CD"/>
</linearGradient>
<linearGradient id="paint5_linear_183_1185" x1="45.6886" y1="88.2096" x2="45.6886" y2="24.752" gradientUnits="userSpaceOnUse">
<stop stop-color="#1E5CA2"/>
<stop offset="0.3478" stop-color="#3F73B0"/>
<stop offset="1" stop-color="#85A5CD"/>
</linearGradient>
<linearGradient id="paint6_linear_183_1185" x1="159.132" y1="88.2096" x2="159.132" y2="24.752" gradientUnits="userSpaceOnUse">
<stop stop-color="#1E5CA2"/>
<stop offset="0.3478" stop-color="#3F73B0"/>
<stop offset="1" stop-color="#85A5CD"/>
</linearGradient>
<linearGradient id="paint7_linear_183_1185" x1="102.362" y1="187.774" x2="102.362" y2="8.93909" gradientUnits="userSpaceOnUse">
<stop stop-color="#246EC2"/>
<stop offset="1" stop-color="#6DA4E6"/>
</linearGradient>
<linearGradient id="paint8_linear_183_1185" x1="88.6105" y1="191.155" x2="88.6105" y2="12.9843" gradientUnits="userSpaceOnUse">
<stop stop-color="#CBD7F4"/>
<stop offset="0.3206" stop-color="#DEE7F9"/>
<stop offset="0.7083" stop-color="#EFF4FD"/>
<stop offset="1" stop-color="#F5F9FF"/>
</linearGradient>
<linearGradient id="paint9_linear_183_1185" x1="111.074" y1="60.0492" x2="114.435" y2="88.9312" gradientUnits="userSpaceOnUse">
<stop stop-color="#5787F8" stop-opacity="0.3"/>
<stop offset="0.00747508" stop-color="#5787F8" stop-opacity="0.2978"/>
<stop offset="1" stop-color="#79ADF7" stop-opacity="0"/>
</linearGradient>
<linearGradient id="paint10_linear_183_1185" x1="106.496" y1="191.155" x2="106.496" y2="12.9839" gradientUnits="userSpaceOnUse">
<stop stop-color="#CBD7F4"/>
<stop offset="0.3206" stop-color="#DEE7F9"/>
<stop offset="0.7083" stop-color="#EFF4FD"/>
<stop offset="1" stop-color="#F5F9FF"/>
</linearGradient>
<linearGradient id="paint11_linear_183_1185" x1="126.27" y1="59.9158" x2="126.27" y2="53.8028" gradientUnits="userSpaceOnUse">
<stop stop-color="#FDA71C"/>
<stop offset="1" stop-color="#FEE74A"/>
</linearGradient>
<linearGradient id="paint12_linear_183_1185" x1="83.6614" y1="68.1541" x2="83.6614" y2="48.6281" gradientUnits="userSpaceOnUse">
<stop stop-color="#6EA2FF"/>
<stop offset="0.3412" stop-color="#80AFFF"/>
<stop offset="1" stop-color="#9EC6FF"/>
</linearGradient>
<linearGradient id="paint13_linear_183_1185" x1="83.6614" y1="68.1539" x2="83.6614" y2="48.6279" gradientUnits="userSpaceOnUse">
<stop stop-color="#6EA2FF"/>
<stop offset="0.3412" stop-color="#80AFFF"/>
<stop offset="1" stop-color="#9EC6FF"/>
</linearGradient>
<linearGradient id="paint14_linear_183_1185" x1="79.0016" y1="104.977" x2="83.4829" y2="110.192" gradientUnits="userSpaceOnUse">
<stop stop-color="#5787F8" stop-opacity="0.3"/>
<stop offset="0.00747508" stop-color="#5787F8" stop-opacity="0.2978"/>
<stop offset="1" stop-color="#79ADF7" stop-opacity="0"/>
</linearGradient>
<linearGradient id="paint15_linear_183_1185" x1="75.9265" y1="106.48" x2="75.9265" y2="100.015" gradientUnits="userSpaceOnUse">
<stop stop-color="#00B32F"/>
<stop offset="1" stop-color="#89DB55"/>
</linearGradient>
<linearGradient id="paint16_linear_183_1185" x1="79.0016" y1="124.781" x2="83.4829" y2="129.995" gradientUnits="userSpaceOnUse">
<stop stop-color="#5787F8" stop-opacity="0.3"/>
<stop offset="0.00747508" stop-color="#5787F8" stop-opacity="0.2978"/>
<stop offset="1" stop-color="#79ADF7" stop-opacity="0"/>
</linearGradient>
<linearGradient id="paint17_linear_183_1185" x1="75.9265" y1="126.283" x2="75.9265" y2="119.818" gradientUnits="userSpaceOnUse">
<stop stop-color="#00B32F"/>
<stop offset="1" stop-color="#89DB55"/>
</linearGradient>
<linearGradient id="paint18_linear_183_1185" x1="79.0016" y1="144.534" x2="83.4829" y2="149.749" gradientUnits="userSpaceOnUse">
<stop stop-color="#5787F8" stop-opacity="0.3"/>
<stop offset="0.00747508" stop-color="#5787F8" stop-opacity="0.2978"/>
<stop offset="1" stop-color="#79ADF7" stop-opacity="0"/>
</linearGradient>
<linearGradient id="paint19_linear_183_1185" x1="75.9265" y1="146.037" x2="75.9265" y2="139.572" gradientUnits="userSpaceOnUse">
<stop stop-color="#00B32F"/>
<stop offset="1" stop-color="#89DB55"/>
</linearGradient>
<linearGradient id="paint20_linear_183_1185" x1="79.0016" y1="164.288" x2="83.4829" y2="169.503" gradientUnits="userSpaceOnUse">
<stop stop-color="#5787F8" stop-opacity="0.3"/>
<stop offset="0.00747508" stop-color="#5787F8" stop-opacity="0.2978"/>
<stop offset="1" stop-color="#79ADF7" stop-opacity="0"/>
</linearGradient>
<linearGradient id="paint21_linear_183_1185" x1="75.9265" y1="165.79" x2="75.9265" y2="159.325" gradientUnits="userSpaceOnUse">
<stop stop-color="#00B32F"/>
<stop offset="1" stop-color="#89DB55"/>
</linearGradient>
<linearGradient id="paint22_linear_183_1185" x1="89.2613" y1="155.503" x2="92.8052" y2="153.275" gradientUnits="userSpaceOnUse">
<stop stop-color="#246EC2"/>
<stop offset="0.1497" stop-color="#3379C9"/>
<stop offset="0.437" stop-color="#5A96DD"/>
<stop offset="0.5587" stop-color="#6DA4E6"/>
<stop offset="0.6891" stop-color="#659EE2"/>
<stop offset="0.8888" stop-color="#508ED8"/>
<stop offset="1" stop-color="#4183D1"/>
</linearGradient>
<linearGradient id="paint23_linear_183_1185" x1="100.518" y1="176.989" x2="107.257" y2="172.753" gradientUnits="userSpaceOnUse">
<stop stop-color="#246EC2"/>
<stop offset="1" stop-color="#6DA4E6"/>
</linearGradient>
<linearGradient id="paint24_linear_183_1185" x1="121.388" y1="184.385" x2="115.164" y2="166.058" gradientUnits="userSpaceOnUse">
<stop stop-color="#FDA86F"/>
<stop offset="0.3541" stop-color="#FDB37A"/>
<stop offset="0.9782" stop-color="#FECF98"/>
<stop offset="1" stop-color="#FED099"/>
</linearGradient>
<linearGradient id="paint25_linear_183_1185" x1="107.443" y1="177.62" x2="126.135" y2="171.374" gradientUnits="userSpaceOnUse">
<stop offset="0.2323" stop-color="#FA3F3F" stop-opacity="0.3"/>
<stop offset="0.5758" stop-color="#FA5C53" stop-opacity="0.1658"/>
<stop offset="1" stop-color="#FB7D69" stop-opacity="0"/>
</linearGradient>
<linearGradient id="paint26_linear_183_1185" x1="100.518" y1="176.989" x2="107.257" y2="172.753" gradientUnits="userSpaceOnUse">
<stop stop-color="#246EC2"/>
<stop offset="0.1497" stop-color="#3379C9"/>
<stop offset="0.437" stop-color="#5A96DD"/>
<stop offset="0.5587" stop-color="#6DA4E6"/>
<stop offset="0.6891" stop-color="#659EE2"/>
<stop offset="0.8888" stop-color="#508ED8"/>
<stop offset="1" stop-color="#4183D1"/>
</linearGradient>
<linearGradient id="paint27_linear_183_1185" x1="108.917" y1="170.758" x2="98.2086" y2="177.987" gradientUnits="userSpaceOnUse">
<stop stop-color="#FDA86F"/>
<stop offset="0.3541" stop-color="#FDB37A"/>
<stop offset="0.9782" stop-color="#FECF98"/>
<stop offset="1" stop-color="#FED099"/>
</linearGradient>
<linearGradient id="paint28_linear_183_1185" x1="106.001" y1="166.557" x2="95.2927" y2="173.786" gradientUnits="userSpaceOnUse">
<stop stop-color="#FDA86F"/>
<stop offset="0.3541" stop-color="#FDB37A"/>
<stop offset="0.9782" stop-color="#FECF98"/>
<stop offset="1" stop-color="#FED099"/>
</linearGradient>
<linearGradient id="paint29_linear_183_1185" x1="111.629" y1="173.904" x2="101.992" y2="182.549" gradientUnits="userSpaceOnUse">
<stop stop-color="#FDA86F"/>
<stop offset="0.3541" stop-color="#FDB37A"/>
<stop offset="0.9782" stop-color="#FECF98"/>
<stop offset="1" stop-color="#FED099"/>
</linearGradient>
<linearGradient id="paint30_linear_183_1185" x1="113.84" y1="176.053" x2="105.434" y2="185.931" gradientUnits="userSpaceOnUse">
<stop stop-color="#FDA86F"/>
<stop offset="0.3541" stop-color="#FDB37A"/>
<stop offset="0.9782" stop-color="#FECF98"/>
<stop offset="1" stop-color="#FED099"/>
</linearGradient>
<linearGradient id="paint31_linear_183_1185" x1="114.362" y1="187.34" x2="107.878" y2="168.247" gradientUnits="userSpaceOnUse">
<stop stop-color="#FDA86F"/>
<stop offset="0.3541" stop-color="#FDB37A"/>
<stop offset="0.9782" stop-color="#FECF98"/>
<stop offset="1" stop-color="#FED099"/>
</linearGradient>
<linearGradient id="paint32_linear_183_1185" x1="143.063" y1="181.421" x2="138.459" y2="159.552" gradientUnits="userSpaceOnUse">
<stop stop-color="#FA5769"/>
<stop offset="1" stop-color="#FCA785"/>
</linearGradient>
<radialGradient id="paint33_radial_183_1185" cx="0" cy="0" r="1" gradientUnits="userSpaceOnUse" gradientTransform="translate(76.8033 131.786) rotate(-32.1548) scale(24.2077 24.2077)">
<stop offset="0.8045" stop-color="#246EC2"/>
<stop offset="0.8483" stop-color="#4B8BD5"/>
<stop offset="0.8835" stop-color="#649DE2"/>
<stop offset="0.905" stop-color="#6DA4E6"/>
<stop offset="0.9255" stop-color="#68A0E4"/>
<stop offset="0.9493" stop-color="#5A96DD"/>
<stop offset="0.9746" stop-color="#4385D1"/>
<stop offset="1" stop-color="#246EC2"/>
</radialGradient>
<linearGradient id="paint34_linear_183_1185" x1="67.9626" y1="143.573" x2="87.5253" y2="117.491" gradientUnits="userSpaceOnUse">
<stop stop-color="white" stop-opacity="0.5"/>
<stop offset="1" stop-color="white" stop-opacity="0.2"/>
</linearGradient>
<linearGradient id="paint35_linear_183_1185" x1="80.3957" y1="134.719" x2="87.0845" y2="142.502" gradientUnits="userSpaceOnUse">
<stop stop-color="#5787F8" stop-opacity="0.3"/>
<stop offset="0.00747508" stop-color="#5787F8" stop-opacity="0.2978"/>
<stop offset="1" stop-color="#79ADF7" stop-opacity="0"/>
</linearGradient>
<linearGradient id="paint36_linear_183_1185" x1="76.0436" y1="137.369" x2="76.0436" y2="126.889" gradientUnits="userSpaceOnUse">
<stop stop-color="#00B32F"/>
<stop offset="1" stop-color="#89DB55"/>
</linearGradient>
</defs>
</svg>
